 http://www.imdb.com/title/tt1371111/


Plot:An exploration of how the actions of individual lives impact one another in the past, present and future, as one soul is shaped from a killer into a hero, and an act of kindness ripples across centuries to inspire a revolution.




Directors: 
Tom Tykwer, Andy Wachowski

Writers: 
David Mitchell (novel), Lana Wachowski 
 
Stars:
 Tom Hanks, Halle Berry and Hugh Grant

Genres:
 Drama | Mystery | Sci-Fi 


Format                                   : AVI
Format/Info                              : Audio Video Interleave
File size                                : 1.39 GiB
Duration                                 : 2h 52mn
Overall bit rate                         : 1 159 Kbps
Writing application                      : VirtualDubMod 1.5.10.2 (build 2540/release)
Writing library                          : VirtualDubMod build 2540/release

Video
ID                                       : 0
Format                                   : MPEG-4 Visual
Format profile                           : Advanced Simple@L5
Format settings, BVOP                    : 2
Format settings, QPel                    : No
Format settings, GMC                     : No warppoints
Format settings, Matrix                  : Default (H.263)
Codec ID                                 : XVID
Codec ID/Hint                            : XviD
Duration                                 : 2h 52mn
Bit rate                                 : 1 022 Kbps
Width                                    : 640 pixels
Height                                   : 272 pixels
Display aspect ratio                     : 2.35:1
Frame rate                               : 23.976 fps
Color space                              : YUV
Chroma subsampling                       : 4:2:0
Bit depth                                : 8 bits
Scan type                                : Progressive
Compression mode                         : Lossy
Bits/(Pixel*Frame)                       : 0.245
Stream size                              : 1.23 GiB (88%)
Writing library                          : XviD 1.2.1 (UTC 2008-12-04)

Audio
ID                                       : 1
Format                                   : MPEG Audio
Format version                           : Version 1
Format profile                           : Layer 3
Mode                                     : Joint stereo
Mode extension                           : MS Stereo
Codec ID                                 : 55
Codec ID/Hint                            : MP3
Duration                                 : 2h 52mn
Bit rate mode                            : Constant
Bit rate                                 : 128 Kbps
Channel(s)                               : 2 channels
Sampling rate                            : 48.0 KHz
Compression mode                         : Lossy
Stream size                              : 158 MiB (11%)
Alignment                                : Aligned on interleaves
Interleave, duration                     : 42 ms (1.00 video frame)
Interleave, preload duration             : 504 ms
Writing library                          : LAME3.99r
Encoding settings                        : -m j -V 4 -q 2 -lowpass 17 -b 128


 
http://www.shotpix.com/images/06328217240035956659.png 
http://www.shotpix.com/images/31772631356437152142.png 
http://www.shotpix.com/images/55909176431370012422.png 
http://www.shotpix.com/images/75807090364462517129.png 
http://www.shotpix.com/images/22749137260302847926.png 
http://www.shotpix.com/images/02932182368149075002.png